<?xml version="1.0" standalone="no"?>
<!DOCTYPE svg PUBLIC "-//W3C//DTD SVG 20010904//EN"
 "http://www.w3.org/TR/2001/REC-SVG-20010904/DTD/svg10.dtd">
<svg version="1.0" xmlns="http://www.w3.org/2000/svg"
 width="2000.000000pt" height="1500.000000pt" viewBox="0 0 2000.000000 1500.000000"
 preserveAspectRatio="xMidYMid meet">

<g transform="translate(0.000000,1500.000000) scale(0.100000,-0.100000)"
fill="#000000" stroke="none">
<path d="M0 7500 l0 -7500 10000 0 10000 0 0 7500 0 7500 -10000 0 -10000 0 0
-7500z m10455 3263 c3 -10 474 -1368 1046 -3018 572 -1650 1047 -3019 1056
-3042 l16 -43 248 0 249 0 0 -215 0 -215 -1110 0 -1110 0 0 215 0 215 424 2
424 3 -214 625 c-117 344 -248 725 -290 848 l-77 222 -1277 0 -1277 0 -290
-847 -290 -848 423 -3 424 -2 0 -215 0 -215 -950 0 -950 0 0 215 0 215 249 0
248 0 16 43 c9 23 487 1394 1062 3047 575 1653 1047 3011 1050 3018 3 9 102
12 449 12 413 0 444 -1 451 -17z m-3865 -668 c-348 -464 -577 -916 -723 -1425
-239 -832 -221 -1732 51 -2540 146 -435 365 -853 629 -1203 l73 -97 -2 -251
-3 -251 -91 104 c-496 565 -848 1233 -1024 1943 -186 751 -186 1508 0 2261
176 709 528 1377 1025 1943 l90 103 3 -273 2 -273 -30 -41z m6961 395 c1035
-1223 1361 -2924 852 -4449 -207 -619 -527 -1165 -982 -1671 l-40 -45 -1 287
0 287 77 107 c423 590 686 1290 769 2046 23 209 23 646 0 856 -86 782 -351
1475 -800 2093 l-46 63 0 311 1 310 45 -50 c25 -27 81 -93 125 -145z m-6935
-1776 c-2 -5 -43 -26 -90 -45 -47 -18 -86 -38 -86 -43 0 -5 41 -83 90 -173
l90 -164 0 -390 0 -390 -162 -177 c-89 -97 -177 -193 -195 -213 l-34 -36 195
-144 196 -144 0 -710 -1 -710 -25 40 c-57 92 -166 298 -218 413 -444 981 -472
2100 -79 3097 67 170 158 359 250 519 l68 119 3 -419 c1 -230 0 -424 -2 -430z
m6928 496 c205 -416 326 -830 382 -1315 25 -208 25 -642 0 -850 -43 -370 -127
-711 -257 -1040 -49 -123 -184 -403 -248 -510 l-41 -70 3 715 2 715 149 107
c82 59 153 111 157 115 4 5 -64 89 -152 188 l-159 179 0 468 0 468 65 130 c36
71 65 132 65 134 0 2 -29 16 -65 31 l-65 28 0 406 0 406 42 -70 c22 -38 77
-144 122 -235z"/>
<path d="M9820 10096 c0 -2 -252 -739 -560 -1637 -308 -898 -560 -1637 -560
-1641 0 -4 511 -8 1135 -8 713 0 1135 4 1135 10 0 5 -246 745 -546 1645 l-546
1635 -29 0 c-16 0 -29 -2 -29 -4z"/>
</g>
</svg>
